<svg width="888" height="619" viewBox="0 0 888 619" fill="none" xmlns="http://www.w3.org/2000/svg">
<rect width="888" height="619" fill="white"/>
<path d="M487.457 95.0431L418.954 95.7105C415.735 79.8591 404.916 38.2677 414.659 26.9232C415.103 22.6534 417.177 18.7195 420.448 15.9402C423.72 13.1609 427.938 11.7505 432.223 12.0026V12.0026C442.84 -4.6172 460.525 -2.12184 472.478 8.25797C484.507 12.4087 489.043 19.7828 487.457 29.7897C496.365 37.5877 498.009 47.0751 494.01 57.8746L487.457 95.0431Z" fill="#2F2E41"/>
<path d="M487.775 95.0431L419.273 95.7105C416.053 79.8591 405.235 38.2677 414.978 26.9232C415.422 22.6534 417.495 18.7195 420.767 15.9402C424.039 13.1609 428.256 11.7505 432.542 12.0026V12.0026C443.159 -4.6172 460.844 -2.12184 472.797 8.25797C484.826 12.4087 489.361 19.7828 487.775 29.7897C496.684 37.5877 498.327 47.0751 494.328 57.8746L487.775 95.0431Z" fill="#2F2E41"/>
<path d="M480.862 137.242L431.44 130.399L421.555 115.953C435.171 106.921 439.989 94.3056 433.721 77.175L467.936 76.4146C466.333 91.6697 471.378 103.481 485.424 110.63L480.862 137.242Z" fill="#FFB9B9"/>
<path d="M419.755 583.02L417.865 608.855C417.78 610.024 417.945 611.198 418.351 612.298C418.756 613.399 419.392 614.399 420.216 615.234C421.04 616.068 422.033 616.716 423.128 617.135C424.223 617.555 425.395 617.735 426.565 617.664L439.835 616.86C440.45 616.823 441.049 616.65 441.59 616.355C442.13 616.06 442.6 615.65 442.964 615.153C443.328 614.656 443.578 614.085 443.697 613.481C443.816 612.876 443.8 612.253 443.65 611.656L436.284 582.193L419.755 583.02Z" fill="#E6E6E6"/>
<path d="M462.716 582.193L455.35 611.656C455.2 612.253 455.184 612.876 455.303 613.481C455.422 614.085 455.672 614.656 456.036 615.153C456.4 615.65 456.87 616.06 457.41 616.355C457.951 616.65 458.55 616.823 459.165 616.86L472.435 617.664C473.605 617.735 474.777 617.555 475.872 617.135C476.967 616.716 477.96 616.068 478.784 615.234C479.608 614.399 480.244 613.398 480.649 612.298C481.055 611.198 481.22 610.024 481.135 608.854L479.245 583.019L462.716 582.193Z" fill="#E6E6E6"/>
<path d="M480.102 586.606L462.194 584.809L444.366 394.239L437.628 584.195L420.034 583.565L390.381 320.485H503.672L480.102 586.606Z" fill="#6C63FF"/>
<path d="M452.729 89.3405C471.626 89.3405 486.945 74.0217 486.945 55.125C486.945 36.2283 471.626 20.9095 452.729 20.9095C433.833 20.9095 418.514 36.2283 418.514 55.125C418.514 74.0217 433.833 89.3405 452.729 89.3405Z" fill="#FFB9B9"/>
<path d="M520.4 326.568L382.017 328.089C402.554 249.908 414.839 177.284 393.422 127.358L427.638 110.63C444.136 127.838 462.509 126.064 482.383 109.11L515.078 117.473C509.478 182.944 511.988 253.064 520.4 326.568Z" fill="#6C63FF"/>
<path d="M344 245.972L429.919 280.187L449.128 285.837C449.988 286.09 450.889 286.166 451.779 286.062C452.668 285.957 453.527 285.674 454.304 285.229C455.082 284.784 455.761 284.187 456.302 283.472C456.842 282.758 457.233 281.942 457.45 281.073C457.831 279.55 457.66 277.941 456.967 276.531C456.275 275.122 455.106 274.003 453.667 273.374L433.721 267.261L373.653 232.285L386.199 199.21L359.967 185.144L344 245.972Z" fill="#FFB9B9"/>
<path d="M344.76 183.623C361.107 190.001 374.109 200.885 384.298 215.558L416.233 169.177L393.422 127.358L344.76 183.623Z" fill="#6C63FF"/>
<path d="M491.292 49.5797C477.405 46.0016 463.752 45.5103 450.479 50.0488C442.025 54.1436 431.871 53.7663 420.58 50.3925V16.2556L481.539 17.8812L491.292 49.5797Z" fill="#2F2E41"/>
<path d="M429.634 206.106C426.947 206.109 424.371 207.178 422.471 209.077C420.572 210.977 419.503 213.553 419.5 216.24L423.5 299.972C423.503 302.659 424.572 305.235 426.471 307.135C428.371 309.034 430.947 310.103 433.634 310.106H479.366C482.053 310.103 484.629 309.034 486.529 307.135C488.428 305.235 489.497 302.659 489.5 299.972L493.5 216.24C493.497 213.553 492.428 210.977 490.529 209.077C488.629 207.178 486.053 206.109 483.366 206.106H429.634Z" fill="#3F3D56"/>
<path d="M559.39 239.646L484.5 269.466L478.85 271.716C478.67 271.786 478.49 271.846 478.3 271.906L459.37 277.476C456.95 278.186 453.6 274.926 451.64 272.676C450.67 271.592 450.12 270.196 450.09 268.741C450.061 267.286 450.554 265.869 451.48 264.746C451.742 264.444 452.029 264.167 452.34 263.916C453.07 263.348 453.929 262.97 454.84 262.816L473.75 259.096C474.428 258.963 475.08 258.72 475.68 258.376L484.5 253.236L530.29 226.576C531.564 225.836 532.533 224.668 533.026 223.279C533.518 221.891 533.502 220.373 532.98 218.996L524.24 195.946C523.704 194.536 523.7 192.978 524.228 191.565C524.756 190.152 525.781 188.979 527.11 188.266L541.59 180.506C542.417 180.062 543.335 179.811 544.273 179.773C545.211 179.735 546.146 179.91 547.007 180.286C547.868 180.661 548.632 181.227 549.242 181.941C549.852 182.654 550.293 183.497 550.53 184.406L563.1 232.286C563.487 233.754 563.323 235.313 562.639 236.669C561.956 238.025 560.8 239.083 559.39 239.646V239.646Z" fill="#FFB9B9"/>
<path d="M563.74 175.259C547.393 181.637 534.391 192.521 524.202 207.194L492.267 160.813L515.078 117.473L563.74 175.259Z" fill="#6C63FF"/>
<path d="M475.5 85.5786C460.532 91.8047 444.837 91.5519 428.5 85.5786C433.254 77.4646 426.148 71.1097 422.5 62.9188L483.5 61.106C478.835 68.2217 471.952 76.6286 475.5 85.5786Z" fill="white"/>
<path d="M482.854 62.46L482.146 61.753L483.146 60.753L489.12 53.781L489.88 54.431L483.88 61.431L482.854 62.46Z" fill="white"/>
<path d="M418.32 58.2219L417.68 58.9905L423.68 63.9905L424.32 63.2219L418.32 58.2219Z" fill="white"/>
<path d="M484.577 68.339L474.075 84.8374L474.919 85.3745L485.421 68.8761L484.577 68.339Z" fill="white"/>
<path d="M419.422 68.3378L418.578 68.8748L429.078 85.3748L429.922 84.8378L419.422 68.3378Z" fill="white"/>
<path d="M486.5 251.821V269.938L480.193 272.45C479.992 272.528 479.791 272.595 479.579 272.662L458.449 278.879C455.748 279.671 452.008 276.033 449.82 273.521C448.737 272.311 448.124 270.752 448.091 269.128C448.058 267.504 448.608 265.922 449.642 264.669C449.934 264.333 450.255 264.023 450.602 263.743C451.416 263.109 452.375 262.687 453.392 262.515L474.5 258.363C475.258 258.214 475.985 257.942 476.655 257.559L486.5 251.821Z" fill="white"/>
<path d="M495.64 187.202H492.026C492.026 136.091 481.503 100.473 471.247 100.473L470.344 96.8594C479.541 96.8594 485.404 111.683 488.703 124.12C493.177 140.979 495.64 163.382 495.64 187.202Z" fill="#3F3D56"/>
<path d="M412.525 174.554H408.911C408.911 127.745 419.507 98.6663 435.11 98.6663L434.207 102.28C423.414 102.28 412.525 124.628 412.525 174.554Z" fill="#3F3D56"/>
<path d="M493.833 197.14C498.822 197.14 502.867 193.095 502.867 188.105C502.867 183.116 498.822 179.071 493.833 179.071C488.843 179.071 484.799 183.116 484.799 188.105C484.799 193.095 488.843 197.14 493.833 197.14Z" fill="#3F3D56"/>
<path d="M398.07 196.236H394.456C394.456 183.284 401.751 172.747 410.718 172.747V176.361C403.744 176.361 398.07 185.277 398.07 196.236Z" fill="#3F3D56"/>
<path d="M426.979 196.236H423.366C423.366 185.277 417.692 176.361 410.718 176.361V172.747C419.685 172.747 426.979 183.284 426.979 196.236Z" fill="#3F3D56"/>
<path d="M425.173 200.753C427.168 200.753 428.786 199.135 428.786 197.14C428.786 195.144 427.168 193.526 425.173 193.526C423.177 193.526 421.559 195.144 421.559 197.14C421.559 199.135 423.177 200.753 425.173 200.753Z" fill="#3F3D56"/>
<path d="M396.263 200.753C398.259 200.753 399.877 199.135 399.877 197.14C399.877 195.144 398.259 193.526 396.263 193.526C394.267 193.526 392.649 195.144 392.649 197.14C392.649 199.135 394.267 200.753 396.263 200.753Z" fill="#3F3D56"/>
<path d="M214.681 76.086L151.088 86.9078C149.517 87.1772 147.903 86.8513 146.557 85.9934C145.211 85.1354 144.23 83.8063 143.803 82.2633C139.209 65.5995 129.603 43.861 138.929 32.9483C139.405 28.3574 141.623 24.1275 145.124 21.1392C148.624 18.1509 153.137 16.6344 157.722 16.9054C169.083 -0.9645 188.005 1.71856 200.794 12.8791C213.665 17.3421 218.518 25.2708 216.821 36.0305C222.381 40.9214 225.296 46.4305 225.911 52.4772C226.202 55.8421 225.776 59.2307 224.661 62.417C223.546 65.6033 221.768 68.5139 219.444 70.9547L214.681 76.086Z" fill="#2F2E41"/>
<path d="M205 126L156 123.083C160.802 111.93 162.72 101.191 160.804 91H197.314C197.231 98.8243 201.079 112.359 205 126Z" fill="#9F616A"/>
<path d="M146.18 580.289L144.162 607.877C144.07 609.125 144.247 610.379 144.68 611.554C145.113 612.729 145.792 613.798 146.672 614.688C147.552 615.579 148.612 616.272 149.781 616.719C150.95 617.167 152.202 617.359 153.452 617.284L167.622 616.425C168.278 616.385 168.918 616.201 169.496 615.886C170.073 615.571 170.574 615.133 170.963 614.603C171.352 614.072 171.619 613.462 171.746 612.817C171.873 612.171 171.856 611.506 171.696 610.868L163.83 579.406L146.18 580.289Z" fill="#E6E6E6"/>
<path d="M192.055 579.406L184.189 610.868C184.03 611.506 184.013 612.171 184.139 612.817C184.266 613.462 184.533 614.072 184.922 614.602C185.311 615.133 185.812 615.571 186.389 615.886C186.967 616.201 187.607 616.385 188.263 616.425L202.433 617.284C203.683 617.359 204.935 617.167 206.104 616.719C207.273 616.272 208.334 615.579 209.213 614.688C210.093 613.798 210.772 612.729 211.205 611.554C211.638 610.379 211.815 609.125 211.723 607.877L209.705 580.289L192.055 579.406Z" fill="#E6E6E6"/>
<path d="M210.033 584L191.066 582.082L172.181 378.708L165.045 581.427L146.409 580.754L115 300H235L210.033 584Z" fill="#6C63FF"/>
<path d="M179.5 103C199.658 103 216 86.6584 216 66.5C216 46.3416 199.658 30 179.5 30C159.342 30 143 46.3416 143 66.5C143 86.6584 159.342 103 179.5 103Z" fill="#9F616A"/>
<path d="M221 48.5661C206.271 46.0357 191.79 45.6883 177.712 48.8979C168.745 51.7936 157.976 51.5268 146 49.1408V25L210.655 26.1496L221 48.5661Z" fill="#2F2E41"/>
<path d="M204.475 95.1172C188.526 101.762 171.801 101.492 154.393 95.1172C159.459 86.4579 151.887 79.676 148 70.9346L213 69C208.029 76.5938 200.695 85.5657 204.475 95.1172Z" fill="white"/>
<path d="M143.27 66.2366L142.632 67.0052L149.015 72.3441L149.653 71.5754L143.27 66.2366Z" fill="white"/>
<path d="M213.812 77.0314L202.638 94.6493L203.479 95.1864L214.653 77.5685L213.812 77.0314Z" fill="white"/>
<path d="M144.433 77.0307L143.593 77.5676L154.764 95.1872L155.604 94.6502L144.433 77.0307Z" fill="white"/>
<path d="M110.974 233L83 215.637L106.857 145.766C109.517 138.557 114.614 132.503 121.265 128.653L129.301 124L130 194.487L110.974 233Z" fill="#6C63FF"/>
<path d="M231.149 266.307L227.02 230.873C226.8 212.169 229.975 194.086 237.548 177.425L241.397 125.356L199.054 108C198.924 108.865 198.814 109.729 198.69 110.593L178.845 120.535L159.491 116.128L159.598 109.929L121.104 127.285C133.834 186.583 126.891 248.162 105 320.897L155.712 334.791L156.134 310.392L201.329 307.158C201.795 315.073 202.169 322.849 202.386 330.451C227.888 339.859 228.764 339.703 252 326.233C242.747 306.74 235.42 286.456 231.149 266.307Z" fill="#6C63FF"/>
<path d="M297.051 224.063L271.004 215.381L229.34 166.878L242.062 125.663L299.945 206.699L297.051 224.063Z" fill="#6C63FF"/>
<path d="M215.179 261.451C215.606 263.293 216.758 264.892 218.384 265.9C220.009 266.908 221.975 267.241 223.849 266.826L246 261.896L242.799 248L220.648 252.929C218.773 253.347 217.143 254.479 216.118 256.077C215.092 257.675 214.755 259.608 215.179 261.451V261.451Z" fill="#E6E6E6"/>
<path d="M235.309 245.287L247.851 268.44C268.945 262.557 287.226 244.009 304.769 222.134L299.945 206.699L270.039 214.416L235.309 245.287Z" fill="#6C63FF"/>
<path d="M72 173L96.0434 177.271L151 255L121.805 248.167L72 173Z" fill="#E6E6E6"/>
<path d="M68.0053 172C67.6405 172.005 67.2839 172.109 66.9728 172.298C66.6617 172.488 66.4075 172.758 66.2367 173.08C66.066 173.401 65.985 173.762 66.0023 174.126C66.0195 174.489 66.1344 174.841 66.3348 175.145L117.476 252.507C117.761 252.939 118.202 253.246 118.707 253.364L142.502 258.946C142.903 259.04 143.324 259.011 143.707 258.861C144.091 258.711 144.42 258.449 144.651 258.109C144.882 257.768 145.004 257.366 145 256.955C144.996 256.544 144.867 256.144 144.63 255.808L88.4802 176.208C88.3279 175.991 88.1343 175.807 87.9103 175.664C87.6864 175.522 87.4365 175.425 87.175 175.38L68.3888 172.035C68.2622 172.012 68.1339 172 68.0053 172Z" fill="#3F3D56"/>
<path d="M99 227.319L100.453 242L123.374 239.717C125.315 239.524 127.099 238.565 128.335 237.052C129.57 235.539 130.157 233.595 129.964 231.648C129.771 229.701 128.816 227.911 127.308 226.671C125.8 225.431 123.863 224.843 121.922 225.036L99 227.319Z" fill="#E6E6E6"/>
<path d="M80 225.851C80.0328 230.672 82.005 235.285 85.487 238.684C88.969 242.084 93.6785 243.994 98.5892 244H102.299L105 221.904L82.6372 214L80 225.851Z" fill="#6C63FF"/>
<path d="M210.689 72L210 71.31L211.041 70.2677L217.26 63L218 63.6344L211.755 70.9294L210.689 72Z" fill="white"/>
<path d="M666.495 18.1919C661.092 24.3844 658.754 33.1632 652.458 38.399C648.634 41.5531 643.795 43.0565 639.345 45.2013C634.895 47.346 630.486 50.6158 629.163 55.473C627.687 60.9401 630.537 66.5228 632.034 71.9898C633.582 77.6461 633.675 83.5548 633.767 89.4739C633.87 96.6336 633.982 103.793 633.859 110.953C633.675 122.108 632.772 133.778 627 143.23C647.845 150.032 670.012 150.957 691.871 151.83C696.072 152.137 700.292 152.028 704.472 151.504C708.095 150.764 711.678 149.834 715.207 148.718C722.186 146.825 729.377 145.881 736.595 145.911C739.743 145.911 742.952 146.11 745.987 145.269C749.022 144.428 751.944 142.273 752.764 139.161C753.492 136.364 752.426 133.389 751.032 130.876C748.489 126.292 744.88 122.465 742.152 117.945C739.368 113.169 737.716 107.79 737.33 102.241C736.944 96.6914 737.833 91.1264 739.928 85.9939C742.347 80.222 746.243 75.1965 748.622 69.414C751.059 63.2055 751.706 56.4105 750.489 49.8357C749.271 43.2609 746.239 37.1825 741.753 32.3222C733.478 23.6379 721.605 20.2736 710.245 18.4863C705.461 17.9069 700.898 16.0988 696.977 13.2295C692.62 10.2857 686.97 9.57077 681.864 10.2226C675.974 10.8994 670.518 13.7284 666.495 18.1919Z" fill="#3F3D56"/>
<path opacity="0.1" d="M628.16 72.8678C628.22 76.7878 628.28 80.7178 628.29 84.6378C628.29 79.2378 628.24 73.8478 628.16 68.4578C628.08 62.8678 627.98 57.2078 626.47 51.8178C625.47 48.3978 623.99 44.9278 623.47 41.4778C622.58 46.3778 625.11 51.3478 626.47 56.2378C627.98 61.5778 628.08 67.2778 628.16 72.8678Z" fill="black"/>
<path opacity="0.1" d="M746.078 139.805C743.024 140.647 739.888 140.46 736.763 140.439C729.602 140.393 722.465 141.309 715.538 143.165C712.033 144.265 708.476 145.181 704.879 145.911C700.726 146.438 696.532 146.55 692.358 146.244C671.387 145.402 650.121 144.497 630.036 138.369C629.44 139.73 628.76 141.05 628 142.322C648.696 149.043 670.705 149.968 692.399 150.832C696.573 151.138 700.767 151.026 704.92 150.499C708.503 149.776 712.048 148.863 715.538 147.763C722.451 145.9 729.573 144.974 736.723 145.006C739.848 145.006 743.024 145.204 746.037 144.361C749.051 143.519 751.952 141.407 752.766 138.328C753.109 136.901 753.074 135.408 752.664 134C751.758 136.913 748.959 138.941 746.078 139.805Z" fill="black"/>
<path d="M715.94 126.817C715.183 128.561 711.995 143.626 711.239 145.171C710.483 146.715 706.354 171.436 705.976 172.822C705.598 174.209 678.764 167.023 678.764 167.023L662.608 153.103L646.003 136.115C646.003 136.115 645.512 120.786 657.744 115.87C658.575 115.534 659.429 115.26 660.299 115.05C675.136 111.384 673.644 65 673.644 65L704.096 78.5211C704.096 78.5211 698.455 105.584 698.65 110.806C698.701 112.56 700.039 113.653 701.787 114.315C704.488 115.105 707.301 115.418 710.105 115.239C710.105 115.239 716.696 125.083 715.94 126.817Z" fill="#FBBEBE"/>
<path d="M602.65 170.808L594.19 179.088C594.19 179.088 609.45 196.748 621.19 197.848C632.93 198.948 640.5 184.418 640.5 184.418L630.34 168.418L602.65 170.808Z" fill="#6C63FF"/>
<path opacity="0.1" d="M602.65 170.808L594.19 179.088C594.19 179.088 609.45 196.748 621.19 197.848C632.93 198.948 640.5 184.418 640.5 184.418L630.34 168.418L602.65 170.808Z" fill="black"/>
<path opacity="0.1" d="M690 95C706.569 95 720 81.1208 720 64C720 46.8792 706.569 33 690 33C673.431 33 660 46.8792 660 64C660 81.1208 673.431 95 690 95Z" fill="black"/>
<path d="M690 93C706.569 93 720 79.1208 720 62C720 44.8792 706.569 31 690 31C673.431 31 660 44.8792 660 62C660 79.1208 673.431 93 690 93Z" fill="#FBBEBE"/>
<path opacity="0.1" d="M715.94 126.569C715.183 128.322 711.995 143.469 711.239 145.021C710.483 146.574 706.354 171.427 705.976 172.821C705.598 174.216 678.764 166.991 678.764 166.991L662.608 152.996L646.003 135.917C646.003 135.917 645.512 120.506 657.744 115.563L688.114 151.655L701.787 114C704.488 114.794 707.301 115.109 710.105 114.929C710.105 114.929 716.696 124.826 715.94 126.569Z" fill="black"/>
<path d="M683.81 152.631L654.534 115.481C652.821 114.275 650.862 113.557 648.834 113.392C646.807 113.227 644.774 113.621 642.918 114.537C636.364 117.668 628.222 120.205 626.095 121.765C623.969 123.325 616 132.984 616 132.984L639.733 201.457L629.281 246.557C629.281 246.557 630.879 269.601 626.808 277.996C624.329 283.365 623.168 289.355 623.439 295.372C623.439 295.372 624.681 306.506 623.266 312.355C622.439 316.265 622.377 320.325 623.083 324.264C623.083 324.264 707.187 328.17 717.802 324.264C723.948 321.96 730.301 320.39 736.751 319.583C736.751 319.583 734.827 280.523 732.902 271.15C730.977 261.778 734.499 226.05 734.499 226.05L732.199 187.775L746 148.502C746 148.502 738.522 123.325 730.727 120.789C730.727 120.789 716.57 117.074 713.558 115.322C710.545 113.571 701.691 112 701.691 112L697.043 113.72L683.81 152.631Z" fill="#6C63FF"/>
<path opacity="0.1" d="M731.453 186.93L666.191 182.332C664.539 182.216 663.11 183.509 662.997 185.22L655.991 291.984C655.878 293.695 657.126 295.176 658.778 295.293L724.039 299.891C725.691 300.007 727.121 298.714 727.233 297.003L734.24 190.24C734.352 188.528 733.104 187.047 731.453 186.93Z" fill="black"/>
<path d="M733.7 184.612L668.438 180.014C666.787 179.897 665.357 181.19 665.244 182.902L658.238 289.665C658.126 291.376 659.374 292.858 661.025 292.974L726.287 297.572C727.938 297.689 729.368 296.396 729.48 294.684L736.487 187.921C736.599 186.21 735.351 184.728 733.7 184.612Z" fill="#3F3D56"/>
<path d="M731.546 192.98L669.478 188.607L663.1 285.801L725.168 290.174L731.546 192.98Z" fill="white"/>
<path opacity="0.1" d="M725.981 217.789L675.28 214.111L674.291 228.753L724.992 232.43L725.981 217.789Z" fill="black"/>
<path d="M723.864 189.346L680.98 186.325L680.21 198.055L723.094 201.077L723.864 189.346Z" fill="#3F3D56"/>
<path opacity="0.1" d="M723.864 189.346L680.98 186.325L680.21 198.055L723.094 201.077L723.864 189.346Z" fill="black"/>
<path opacity="0.1" d="M692.936 53.8551C692.378 48.7386 693.576 43.5812 696.317 39.3024C695.991 43.5911 697.152 47.8593 699.586 51.3279C702.021 54.7966 705.567 57.2344 709.578 58.1965C709.236 57.8859 708.992 57.4743 708.877 57.0158C708.763 56.5573 708.785 56.0734 708.939 55.6277C711.02 58.0903 712.614 61.0094 714.97 63.1748C717.326 65.3402 720.859 66.6352 723.631 65.096C727.398 62.9731 727.439 57.3792 726.464 53.0272C724.372 43.759 720.08 35.1911 713.985 28.1145C712.464 25.9755 710.49 24.2336 708.218 23.0255C705.945 21.8175 703.436 21.176 700.887 21.1513C695.119 20.6843 689.128 21.215 683.96 23.9217C681.052 25.5808 678.328 27.5708 675.837 29.8553L661.622 41.9773C660.254 43.0074 659.083 44.2963 658.169 45.7773C657.559 47.0155 657.193 48.3691 657.093 49.7578C656.73 53.7278 657.433 57.7251 659.122 61.3007C660.812 64.8764 663.421 67.8889 666.658 70C666.59 66.8623 667.415 63.7741 669.03 61.128C670.644 58.482 672.975 56.3974 675.725 55.1395C676.156 55.5161 676.505 55.9847 676.748 56.5137C676.992 57.0428 677.124 57.6202 677.137 58.2071L680.132 52.6238C680.578 51.6078 681.28 50.7381 682.163 50.1081C684.011 49.0467 686.316 50.2992 687.89 51.7959C689.464 53.2925 690.997 55.1607 693.109 55.3942L693.19 47.0829" fill="black"/>
<path d="M692.911 52.8626C692.351 47.7417 693.55 42.5794 696.294 38.2965C695.379 46.7899 701.505 55.5593 709.571 57.1942C709.228 56.8862 708.983 56.4764 708.869 56.0193C708.754 55.5622 708.776 55.0795 708.931 54.6356C711.013 57.0987 712.608 60.0076 714.965 62.1841C717.321 64.3605 720.856 65.6451 723.63 64.0951C727.398 61.9718 727.439 56.3767 726.464 52.0345C724.371 42.7645 720.077 34.195 713.979 27.1171C712.087 24.7065 709.703 22.7694 707.001 21.4478C705.045 20.6917 702.989 20.2548 700.906 20.1526C695.136 19.6854 689.142 20.2056 683.972 22.9129C681.064 24.5797 678.339 26.5733 675.845 28.8583L661.623 40.9825C660.253 42.0102 659.081 43.2998 658.17 44.7833C657.558 46.0211 657.192 47.3753 657.093 48.7646C656.73 52.7338 657.434 56.73 659.124 60.3045C660.814 63.879 663.425 66.8902 666.662 69C666.596 65.8622 667.423 62.7747 669.038 60.1286C670.653 57.4826 672.983 55.3972 675.733 54.1366C676.163 54.5147 676.511 54.9836 676.754 55.5125C676.998 56.0414 677.131 56.6182 677.145 57.2048L680.132 51.6417C680.575 50.6237 681.278 49.7531 682.164 49.1255C684.012 48.0639 686.318 49.3166 687.893 50.8136C689.467 52.3105 691.001 54.1685 693.114 54.4126L693.195 46.0891" fill="#3F3D56"/>
<path d="M707.594 241.345C705.118 239.966 664.171 247 664.171 247C664.171 247 657.426 244.878 641.125 241.929C624.823 238.979 623.782 221.432 623.782 221.432L622 186.305L627.501 181L651.068 197.975C651.068 197.975 651.434 206.558 651.068 208.107C650.836 209.167 650.22 210.43 650.278 211.289C650.295 211.522 650.382 211.742 650.525 211.914C650.668 212.087 650.859 212.203 651.068 212.244C652.667 212.69 674.46 216.573 674.46 216.573C674.46 216.573 724.974 212.764 737.567 231.5C738.565 232.875 739.319 234.444 739.792 236.126C742.914 248.931 709.838 242.565 707.594 241.345Z" fill="#FBBEBE"/>
<path opacity="0.1" d="M741 244.344C738.951 245.307 737.681 246 737.681 246C737.681 246 718.464 245.405 707.667 241.269C696.871 237.134 683.749 237.87 683.749 237.87C683.749 237.87 638.759 229.685 645.735 219C645.754 219.237 645.846 219.462 645.998 219.638C646.15 219.814 646.353 219.932 646.575 219.974C648.275 220.429 671.446 224.391 671.446 224.391C671.446 224.391 725.153 220.505 738.542 239.624C739.635 241.019 740.469 242.621 741 244.344V244.344Z" fill="black"/>
<path d="M759.653 182C759.653 182 762.273 201.292 762.456 202.859C762.639 204.427 763.583 223.316 762.456 225.467C761.329 227.618 759.653 231.114 759.653 231.114C759.653 231.114 761.522 235.203 754.048 236.771C746.574 238.339 737.801 243 737.801 243C737.801 243 718.741 242.417 708.099 238.328C697.457 234.239 684.378 235.012 684.378 235.012C684.378 235.012 627.767 224.874 652.057 212.5C676.346 200.126 693.527 216.886 693.527 216.886L720.609 215.138C720.609 215.138 730.703 208.697 733.506 209.29C735.485 209.553 737.494 209.215 739.294 208.315L739.487 187.848L759.653 182Z" fill="#FBBEBE"/>
<path opacity="0.1" d="M615.65 117.458L625.485 126.373L610.31 174.5C610.31 174.5 611.6 175.758 619.13 180.178C626.66 184.598 640.47 185.508 640.47 185.508L635.32 135.288L615.65 117.458Z" fill="black"/>
<path d="M624.52 120.28L619.18 120L603 183C603 183 620.47 178.58 628 183C635.53 187.42 649.34 188.33 649.34 188.33L644.19 138.11L624.52 120.28Z" fill="#6C63FF"/>
<g opacity="0.1">
<path opacity="0.1" d="M696.073 38.5506C696.029 37.7406 696.046 36.9283 696.124 36.121C694.572 38.5344 693.504 41.2468 692.984 44.0966V46.5473C692.984 46.5473 692.984 46.4945 692.984 46.4628V47.0438C692.984 48.7552 692.984 50.477 692.933 52.1883H692.79V52.9806C692.79 52.706 692.79 52.4419 692.739 52.1672C690.7 51.8292 689.242 50.0545 687.723 48.639C686.204 47.2234 683.829 45.8713 681.973 46.9593C681.084 47.5838 680.379 48.4501 679.934 49.4629L676.906 54.9983C676.893 54.4158 676.759 53.843 676.515 53.3183C676.27 52.7936 675.921 52.3291 675.489 51.9559C672.727 53.2079 670.387 55.2824 668.766 57.9157C667.145 60.5491 666.316 63.6224 666.385 66.7451C663.599 64.9366 661.269 62.4673 659.586 59.5412C657.904 56.6152 656.918 53.3163 656.709 49.9172C656.532 53.7126 657.335 57.4884 659.036 60.8549C660.737 64.2215 663.273 67.057 666.385 69.0691C666.319 65.947 667.148 62.8749 668.769 60.242C670.39 57.6092 672.729 55.5342 675.489 54.28C675.92 54.6561 676.269 55.1227 676.513 55.6489C676.758 56.1752 676.891 56.7491 676.906 57.3328L679.903 51.7975C680.348 50.7846 681.054 49.9184 681.942 49.2939C683.798 48.2375 686.112 49.484 687.692 50.9735C689.273 52.463 690.812 54.3116 692.933 54.5546C692.933 51.8503 692.96 49.1531 693.014 46.4628C693.515 43.6405 694.554 40.9504 696.073 38.5506V38.5506Z" fill="black"/>
<path opacity="0.1" d="M692.627 49.1883C692.678 48.4699 692.759 47.7516 692.861 47.0755L692.974 44.1599C692.667 45.816 692.551 47.5039 692.627 49.1883Z" fill="black"/>
<path opacity="0.1" d="M723.559 61.7907C720.776 63.333 717.228 62.0442 714.863 59.8893C712.497 57.7343 710.897 54.8292 708.807 52.3785C708.652 52.8219 708.631 53.3035 708.745 53.7599C708.86 54.2162 709.105 54.6258 709.449 54.9349C709.245 54.9349 709.051 54.8293 708.858 54.7764C710.897 57.2061 712.518 60.0583 714.863 62.171C717.207 64.2837 720.776 65.6147 723.559 64.0725C726.342 62.5302 727.138 58.9174 726.893 55.3997C726.709 58.1674 725.751 60.5653 723.559 61.7907Z" fill="black"/>
<path opacity="0.1" d="M708.796 54.7553C705.387 53.7926 702.343 51.7731 700.073 48.9674C697.802 46.1617 696.414 42.7041 696.093 39.0577C695.512 47.3502 701.548 55.6638 709.449 57.2589C709.112 56.956 708.871 56.5561 708.754 56.1102C708.638 55.6643 708.653 55.1925 708.796 54.7553V54.7553Z" fill="black"/>
</g>
<path d="M736.116 344.356L731.621 376.564L726.393 397.91L718.908 438.26V480.973C718.908 480.973 723.769 565.955 721.898 568.276C720.026 570.596 712.917 583.81 711.046 583.04C709.175 582.27 693.838 579.549 688.966 581.87C684.095 584.19 667.609 582.26 667.609 582.26C667.609 582.26 667.232 549.282 665.361 539.969C663.49 530.657 668.727 491.076 668.727 491.076L670.599 469.741C670.599 469.741 673.223 455.377 670.975 451.496C668.727 447.615 674.341 432.513 674.341 432.513C674.341 432.513 671.728 423.959 672.48 418.918C673.233 413.877 674.341 394.862 674.341 394.862C674.341 394.862 672.48 408.066 667.283 415.818C662.086 423.569 662.747 493.038 662.747 493.038L663.113 553.152C672.48 584.981 663.113 581.87 663.113 581.87C663.113 581.87 627.578 590.022 620.398 583.42C613.218 576.818 615.272 535.265 615.272 535.265C615.272 535.265 614.53 501.897 617.52 491.815C620.51 481.732 621.456 444.472 621.456 444.472C621.456 444.472 621.262 369.962 621.456 364.932C621.598 360.713 621.456 322.947 621.456 311.145C621.456 308.952 621.456 307.655 621.456 307.655L625.748 296.602L676.599 290H700.927C700.927 290 737.54 298.922 741.323 302.772C741.404 302.836 741.473 302.914 741.526 303.004C743.977 306.727 736.116 344.356 736.116 344.356Z" fill="#6C63FF"/>
<path d="M743.93 138L751.362 140.007C751.362 140.007 770.342 172.908 771.828 174.696C773.315 176.484 764.75 183.21 761.221 183.21C757.692 183.21 740.39 185.642 735.365 191.262C730.339 196.881 732.432 168.602 732.432 167.957C732.432 167.313 738.712 149.409 738.712 149.409L743.93 138Z" fill="#6C63FF"/>
<path opacity="0.1" d="M673.063 604.1C667.164 603.985 661.265 604.262 655.403 604.93C646.023 606.03 638.843 601.93 637.603 600.24C636.363 598.55 629.873 592.79 624.903 590.86C622.473 589.92 621.903 586.86 622.013 584C624.793 584.65 630.633 586.31 632.923 589.2C635.923 593.06 641.293 599.55 648.923 599.96C655.083 600.29 670.083 599.19 675.583 598.75C676.763 603.42 673.063 604.1 673.063 604.1Z" fill="black"/>
<path opacity="0.1" d="M714.283 598.25C711.393 599.36 695.733 601.25 691.353 600.72C686.973 600.19 681.173 597.96 679.513 595.07C677.853 592.18 668.623 587.79 666.143 588.07C663.663 588.35 658.143 585.73 658.143 585.73C658.143 585.73 657.283 581.73 659.783 579L664.783 582.55C664.783 582.55 678.163 586.7 680.643 590.55C683.123 594.4 687.643 596.55 694.173 596.94C699.053 597.26 710.263 595.36 715.513 594.41C715.863 596.14 715.593 597.76 714.283 598.25Z" fill="black"/>
<path opacity="0.1" d="M676.44 617.3C730.255 617.3 773.88 610.293 773.88 601.65C773.88 593.007 730.255 586 676.44 586C622.625 586 579 593.007 579 601.65C579 610.293 622.625 617.3 676.44 617.3Z" fill="#6C63FF"/>
</svg>
