<svg width="1004" height="633" viewBox="0 0 1004 633" fill="none" xmlns="http://www.w3.org/2000/svg">
<rect width="1004" height="633" fill="white"/>
<circle cx="434" cy="368" r="227" fill="#FE1A1A"/>
<rect x="368.289" y="188.292" width="125.447" height="349.958" fill="white"/>
<path d="M254.789 427.903V301.792H429.52H604.25V427.903H254.789Z" fill="white"/>
<path d="M481.069 261.889C481.069 290.037 475.817 339.447 461.013 352.617C461.013 342.081 400.843 297.009 355 283.839C404.282 325.984 443.822 449.199 418.035 537C549.835 414.078 481.069 239.938 481.069 261.889Z" fill="#2C14BB"/>
<path d="M460.513 352.617V353.731L461.345 352.99C465.138 349.616 468.277 343.966 470.861 337.017C473.449 330.056 475.5 321.734 477.085 312.958C480.254 295.407 481.569 275.988 481.569 261.889C481.569 261.218 481.637 260.804 481.726 260.586C481.737 260.558 481.748 260.536 481.757 260.52C481.787 260.536 481.832 260.563 481.89 260.609C481.997 260.693 482.126 260.821 482.276 261.002C482.578 261.364 482.932 261.898 483.33 262.61C484.926 265.462 487.084 270.901 489.274 278.468C493.65 293.586 498.119 317.092 498.477 345.124C499.187 400.803 483.675 474.296 419.019 535.391C431.349 491.728 427.818 439.648 415.15 393.167C402.614 347.168 381.103 306.554 357.047 284.968C379.384 291.805 404.822 305.863 424.915 319.628C435.288 326.734 444.221 333.752 450.555 339.644C453.723 342.59 456.23 345.245 457.941 347.481C458.797 348.598 459.445 349.601 459.878 350.475C460.314 351.355 460.513 352.068 460.513 352.617Z" stroke="#2C14BB" stroke-opacity="0.94"/>
<ellipse cx="438.48" cy="271.84" rx="28.375" ry="26.7986" fill="#2C14BB"/>
<path d="M603.457 95.0431L534.954 95.7105C531.735 79.8591 520.916 38.2677 530.659 26.9232C531.103 22.6534 533.177 18.7195 536.448 15.9402C539.72 13.1609 543.938 11.7505 548.223 12.0026V12.0026C558.84 -4.6172 576.525 -2.12184 588.478 8.25797C600.507 12.4087 605.043 19.7828 603.457 29.7897C612.365 37.5877 614.009 47.0751 610.01 57.8746L603.457 95.0431Z" fill="#2F2E41"/>
<path d="M603.775 95.0431L535.273 95.7105C532.053 79.8591 521.235 38.2677 530.978 26.9232C531.422 22.6534 533.495 18.7195 536.767 15.9402C540.039 13.1609 544.256 11.7505 548.542 12.0026V12.0026C559.159 -4.6172 576.844 -2.12184 588.797 8.25797C600.826 12.4087 605.361 19.7828 603.775 29.7897C612.684 37.5877 614.327 47.0751 610.328 57.8746L603.775 95.0431Z" fill="#2F2E41"/>
<path d="M596.862 137.242L547.44 130.399L537.555 115.953C551.171 106.921 555.989 94.3056 549.721 77.175L583.936 76.4146C582.333 91.6697 587.378 103.481 601.424 110.63L596.862 137.242Z" fill="#FFB9B9"/>
<path d="M535.755 583.02L533.865 608.855C533.78 610.024 533.945 611.198 534.351 612.298C534.756 613.399 535.392 614.399 536.216 615.234C537.04 616.068 538.033 616.716 539.128 617.135C540.223 617.555 541.395 617.735 542.565 617.664L555.835 616.86C556.45 616.823 557.049 616.65 557.59 616.355C558.13 616.06 558.6 615.65 558.964 615.153C559.328 614.656 559.578 614.085 559.697 613.481C559.816 612.876 559.8 612.253 559.65 611.656L552.284 582.193L535.755 583.02Z" fill="#E6E6E6"/>
<path d="M578.716 582.193L571.35 611.656C571.2 612.253 571.184 612.876 571.303 613.481C571.422 614.085 571.672 614.656 572.036 615.153C572.4 615.65 572.87 616.06 573.41 616.355C573.951 616.65 574.55 616.823 575.165 616.86L588.435 617.664C589.605 617.735 590.777 617.555 591.872 617.135C592.967 616.716 593.96 616.068 594.784 615.234C595.608 614.399 596.244 613.398 596.649 612.298C597.055 611.198 597.22 610.024 597.135 608.854L595.245 583.019L578.716 582.193Z" fill="#E6E6E6"/>
<path d="M596.102 586.606L578.194 584.809L560.366 394.239L553.628 584.195L536.034 583.565L506.381 320.485H619.672L596.102 586.606Z" fill="#6C63FF"/>
<path d="M596.102 586.606L578.194 584.809L560.366 394.239L553.628 584.195L536.034 583.565L506.381 320.485H619.672L596.102 586.606Z" fill="#6C63FF"/>
<path d="M568.729 89.3405C587.626 89.3405 602.945 74.0217 602.945 55.125C602.945 36.2283 587.626 20.9095 568.729 20.9095C549.833 20.9095 534.514 36.2283 534.514 55.125C534.514 74.0217 549.833 89.3405 568.729 89.3405Z" fill="#FFB9B9"/>
<path d="M636.4 326.568L498.017 328.089C518.554 249.908 530.839 177.284 509.422 127.358L543.638 110.63C560.136 127.838 578.509 126.064 598.383 109.11L631.078 117.473C625.478 182.944 627.988 253.064 636.4 326.568Z" fill="#6C63FF"/>
<path d="M460 245.972L545.919 280.187L565.128 285.837C565.988 286.09 566.889 286.166 567.779 286.062C568.668 285.957 569.527 285.674 570.304 285.229C571.082 284.784 571.761 284.187 572.302 283.472C572.842 282.758 573.233 281.942 573.45 281.073C573.831 279.55 573.66 277.941 572.967 276.531C572.275 275.122 571.106 274.003 569.667 273.374L549.721 267.261L489.653 232.285L502.199 199.21L475.967 185.144L460 245.972Z" fill="#FFB9B9"/>
<path d="M460.76 183.623C477.107 190.001 490.109 200.885 500.298 215.558L532.233 169.177L509.422 127.358L460.76 183.623Z" fill="#6C63FF"/>
<path d="M607.292 49.5797C593.405 46.0016 579.752 45.5103 566.479 50.0488C558.025 54.1436 547.871 53.7663 536.58 50.3925V16.2556L597.539 17.8812L607.292 49.5797Z" fill="#2F2E41"/>
<path d="M545.634 206.106C542.947 206.109 540.371 207.178 538.471 209.077C536.572 210.977 535.503 213.553 535.5 216.24L539.5 299.972C539.503 302.659 540.572 305.235 542.471 307.135C544.371 309.034 546.947 310.103 549.634 310.106H595.366C598.053 310.103 600.629 309.034 602.529 307.135C604.428 305.235 605.497 302.659 605.5 299.972L609.5 216.24C609.497 213.553 608.428 210.977 606.529 209.077C604.629 207.178 602.053 206.109 599.366 206.106H545.634Z" fill="#3F3D56"/>
<path d="M675.39 239.646L600.5 269.466L594.85 271.716C594.67 271.786 594.49 271.846 594.3 271.906L575.37 277.476C572.95 278.186 569.6 274.926 567.64 272.676C566.67 271.592 566.12 270.196 566.09 268.741C566.061 267.286 566.554 265.869 567.48 264.746C567.742 264.444 568.029 264.167 568.34 263.916C569.07 263.348 569.929 262.97 570.84 262.816L589.75 259.096C590.428 258.963 591.08 258.72 591.68 258.376L600.5 253.236L646.29 226.576C647.564 225.836 648.533 224.668 649.026 223.279C649.518 221.891 649.502 220.373 648.98 218.996L640.24 195.946C639.704 194.536 639.7 192.978 640.228 191.565C640.756 190.152 641.781 188.979 643.11 188.266L657.59 180.506C658.417 180.062 659.335 179.811 660.273 179.773C661.211 179.735 662.146 179.91 663.007 180.286C663.868 180.661 664.632 181.227 665.242 181.941C665.852 182.654 666.293 183.497 666.53 184.406L679.1 232.286C679.487 233.754 679.323 235.313 678.639 236.669C677.956 238.025 676.8 239.083 675.39 239.646V239.646Z" fill="#FFB9B9"/>
<path d="M679.74 175.259C663.393 181.637 650.391 192.521 640.202 207.194L608.267 160.813L631.078 117.473L679.74 175.259Z" fill="#6C63FF"/>
<path d="M591.5 85.5786C576.532 91.8047 560.837 91.5519 544.5 85.5786C549.254 77.4646 542.148 71.1097 538.5 62.9188L599.5 61.106C594.835 68.2217 587.952 76.6286 591.5 85.5786Z" fill="white"/>
<path d="M598.854 62.46L598.146 61.753L599.146 60.753L605.12 53.781L605.88 54.431L599.88 61.431L598.854 62.46Z" fill="white"/>
<path d="M534.32 58.2219L533.68 58.9905L539.68 63.9905L540.32 63.2219L534.32 58.2219Z" fill="white"/>
<path d="M600.577 68.339L590.075 84.8374L590.919 85.3745L601.421 68.8761L600.577 68.339Z" fill="white"/>
<path d="M535.422 68.3378L534.578 68.8748L545.078 85.3748L545.922 84.8378L535.422 68.3378Z" fill="white"/>
<path d="M602.5 251.821V269.938L596.193 272.45C595.992 272.528 595.791 272.595 595.579 272.662L574.449 278.879C571.748 279.671 568.008 276.033 565.82 273.521C564.737 272.311 564.124 270.752 564.091 269.128C564.058 267.504 564.608 265.922 565.642 264.669C565.934 264.333 566.255 264.023 566.602 263.743C567.416 263.109 568.375 262.687 569.392 262.515L590.5 258.363C591.258 258.214 591.985 257.942 592.655 257.559L602.5 251.821Z" fill="white"/>
<path d="M611.64 187.202H608.026C608.026 136.091 597.503 100.473 587.247 100.473L586.344 96.8594C595.541 96.8594 601.404 111.683 604.703 124.12C609.177 140.979 611.64 163.382 611.64 187.202Z" fill="#3F3D56"/>
<path d="M528.525 174.554H524.911C524.911 127.745 535.507 98.6663 551.11 98.6663L550.207 102.28C539.414 102.28 528.525 124.628 528.525 174.554Z" fill="#3F3D56"/>
<path d="M609.833 197.14C614.822 197.14 618.867 193.095 618.867 188.105C618.867 183.116 614.822 179.071 609.833 179.071C604.843 179.071 600.799 183.116 600.799 188.105C600.799 193.095 604.843 197.14 609.833 197.14Z" fill="#3F3D56"/>
<path d="M514.07 196.236H510.456C510.456 183.284 517.751 172.747 526.718 172.747V176.361C519.744 176.361 514.07 185.277 514.07 196.236Z" fill="#3F3D56"/>
<path d="M542.979 196.236H539.366C539.366 185.277 533.692 176.361 526.718 176.361V172.747C535.685 172.747 542.979 183.284 542.979 196.236Z" fill="#3F3D56"/>
<path d="M541.173 200.753C543.168 200.753 544.786 199.135 544.786 197.14C544.786 195.144 543.168 193.526 541.173 193.526C539.177 193.526 537.559 195.144 537.559 197.14C537.559 199.135 539.177 200.753 541.173 200.753Z" fill="#3F3D56"/>
<path d="M512.263 200.753C514.259 200.753 515.877 199.135 515.877 197.14C515.877 195.144 514.259 193.526 512.263 193.526C510.267 193.526 508.649 195.144 508.649 197.14C508.649 199.135 510.267 200.753 512.263 200.753Z" fill="#3F3D56"/>
<path d="M330.681 76.086L267.088 86.9078C265.517 87.1772 263.903 86.8513 262.557 85.9934C261.211 85.1354 260.23 83.8063 259.803 82.2633C255.209 65.5995 245.603 43.861 254.929 32.9483C255.405 28.3574 257.623 24.1275 261.124 21.1392C264.624 18.1509 269.137 16.6344 273.722 16.9054C285.083 -0.9645 304.005 1.71856 316.794 12.8791C329.665 17.3421 334.518 25.2708 332.821 36.0305C338.381 40.9214 341.296 46.4305 341.911 52.4772C342.202 55.8421 341.776 59.2307 340.661 62.417C339.546 65.6033 337.768 68.5139 335.444 70.9547L330.681 76.086Z" fill="#2F2E41"/>
<path d="M321 126L272 123.083C276.802 111.93 278.72 101.191 276.804 91H313.314C313.231 98.8243 317.079 112.359 321 126Z" fill="#9F616A"/>
<path d="M262.18 580.289L260.162 607.877C260.07 609.125 260.247 610.379 260.68 611.554C261.113 612.729 261.792 613.798 262.672 614.688C263.552 615.579 264.612 616.272 265.781 616.719C266.95 617.167 268.202 617.359 269.452 617.284L283.622 616.425C284.278 616.385 284.918 616.201 285.496 615.886C286.073 615.571 286.574 615.133 286.963 614.603C287.352 614.072 287.619 613.462 287.746 612.817C287.873 612.171 287.856 611.506 287.696 610.868L279.83 579.406L262.18 580.289Z" fill="#E3EAEC"/>
<path d="M308.055 579.406L300.189 610.868C300.03 611.506 300.013 612.171 300.139 612.817C300.266 613.462 300.533 614.072 300.922 614.602C301.311 615.133 301.812 615.571 302.389 615.886C302.967 616.201 303.607 616.385 304.263 616.425L318.433 617.284C319.683 617.359 320.935 617.167 322.104 616.719C323.273 616.272 324.334 615.579 325.213 614.688C326.093 613.798 326.772 612.729 327.205 611.554C327.638 610.379 327.815 609.125 327.723 607.877L325.705 580.289L308.055 579.406Z" fill="#E3EAEC"/>
<path d="M326.033 584L307.066 582.082L288.181 378.708L281.045 581.427L262.409 580.754L231 300H351L326.033 584Z" fill="#6C63FF"/>
<path d="M792.698 589L774.995 587.258L757.369 402.503L750.708 586.662L733.315 586.051L704 331H816L792.698 589Z" fill="#6C63FF"/>
<path d="M295.5 103C315.658 103 332 86.6584 332 66.5C332 46.3416 315.658 30 295.5 30C275.342 30 259 46.3416 259 66.5C259 86.6584 275.342 103 295.5 103Z" fill="#9F616A"/>
<path d="M337 48.5661C322.271 46.0357 307.79 45.6883 293.712 48.8979C284.745 51.7936 273.976 51.5268 262 49.1408V25L326.655 26.1496L337 48.5661Z" fill="#2F2E41"/>
<path d="M320.475 95.1172C304.526 101.762 287.801 101.492 270.393 95.1172C275.459 86.4579 267.887 79.676 264 70.9346L329 69C324.029 76.5938 316.695 85.5657 320.475 95.1172Z" fill="white"/>
<path d="M259.27 66.2366L258.632 67.0052L265.015 72.3441L265.653 71.5754L259.27 66.2366Z" fill="white"/>
<path d="M329.812 77.0314L318.638 94.6493L319.479 95.1864L330.653 77.5685L329.812 77.0314Z" fill="white"/>
<path d="M260.433 77.0307L259.593 77.5676L270.764 95.1872L271.604 94.6502L260.433 77.0307Z" fill="white"/>
<path d="M226.974 233L199 215.637L222.857 145.766C225.517 138.557 230.614 132.503 237.265 128.653L245.301 124L246 194.487L226.974 233Z" fill="#6C63FF"/>
<path d="M347.149 266.307L343.02 230.873C342.8 212.169 345.975 194.086 353.548 177.425L357.397 125.356L315.054 108C314.924 108.865 314.814 109.729 314.69 110.593L294.845 120.535L275.491 116.128L275.598 109.929L237.104 127.285C249.834 186.583 242.891 248.162 221 320.897L271.712 334.791L272.134 310.392L317.329 307.158C317.795 315.073 318.169 322.849 318.386 330.451C343.888 339.859 344.764 339.703 368 326.233C358.747 306.74 351.42 286.456 347.149 266.307Z" fill="#6C63FF"/>
<path d="M413.051 224.063L387.004 215.381L345.34 166.878L358.062 125.663L415.945 206.699L413.051 224.063Z" fill="#6C63FF"/>
<path d="M331.179 261.451C331.606 263.293 332.758 264.892 334.384 265.9C336.009 266.908 337.975 267.241 339.849 266.826L362 261.896L358.799 248L336.648 252.929C334.773 253.347 333.143 254.479 332.118 256.077C331.092 257.675 330.755 259.608 331.179 261.451V261.451Z" fill="#E6E6E6"/>
<path d="M351.309 245.287L363.851 268.44C384.945 262.557 403.226 244.009 420.769 222.134L415.945 206.699L386.039 214.416L351.309 245.287Z" fill="#6C63FF"/>
<path d="M188 173L212.043 177.271L267 255L237.805 248.167L188 173Z" fill="#E6E6E6"/>
<path d="M184.005 172C183.641 172.005 183.284 172.109 182.973 172.298C182.662 172.488 182.407 172.758 182.237 173.08C182.066 173.401 181.985 173.762 182.002 174.126C182.02 174.489 182.134 174.841 182.335 175.145L233.476 252.507C233.761 252.939 234.202 253.246 234.707 253.364L258.502 258.946C258.903 259.04 259.324 259.011 259.707 258.861C260.091 258.711 260.42 258.449 260.651 258.109C260.882 257.768 261.004 257.366 261 256.955C260.996 256.544 260.867 256.144 260.63 255.808L204.48 176.208C204.328 175.991 204.134 175.807 203.91 175.664C203.686 175.522 203.437 175.425 203.175 175.38L184.389 172.035C184.262 172.012 184.134 172 184.005 172Z" fill="#3F3D56"/>
<path d="M215 227.319L216.453 242L239.374 239.717C241.315 239.524 243.099 238.565 244.335 237.052C245.57 235.539 246.157 233.595 245.964 231.648C245.771 229.701 244.816 227.911 243.308 226.671C241.8 225.431 239.863 224.843 237.922 225.036L215 227.319Z" fill="#E6E6E6"/>
<path d="M196 225.851C196.033 230.672 198.005 235.285 201.487 238.684C204.969 242.084 209.678 243.994 214.589 244H218.299L221 221.904L198.637 214L196 225.851Z" fill="#6C63FF"/>
<path d="M326.689 72L326 71.31L327.041 70.2677L333.26 63L334 63.6344L327.755 70.9294L326.689 72Z" fill="white"/>
<path d="M746.868 25.365C741.55 31.6883 739.25 40.6526 733.054 45.999C729.291 49.2197 724.528 50.7549 720.149 52.945C715.77 55.135 711.431 58.4738 710.129 63.4337C708.676 69.0163 711.481 74.7169 712.954 80.2995C714.478 86.0753 714.569 92.1087 714.66 98.1529C714.761 105.464 714.872 112.775 714.75 120.086C714.569 131.476 713.681 143.393 708 153.044C728.514 159.99 750.329 160.935 771.842 161.826C775.976 162.14 780.129 162.029 784.243 161.493C787.808 160.738 791.334 159.788 794.807 158.649C801.675 156.715 808.752 155.751 815.856 155.782C818.953 155.782 822.112 155.986 825.098 155.127C828.085 154.268 830.961 152.068 831.768 148.89C832.485 146.034 831.435 142.996 830.063 140.43C827.56 135.749 824.009 131.842 821.325 127.225C818.585 122.349 816.959 116.856 816.579 111.19C816.198 105.523 817.074 99.8403 819.135 94.5994C821.516 88.7055 825.351 83.5739 827.692 77.6693C830.089 71.3296 830.727 64.391 829.529 57.6773C828.33 50.9636 825.346 44.7568 820.931 39.7938C812.788 30.9261 801.104 27.4907 789.923 25.6656C785.216 25.074 780.725 23.2277 776.867 20.2977C772.578 17.2918 767.018 16.5617 761.993 17.2273C756.196 17.9184 750.827 20.8072 746.868 25.365Z" fill="#3F3D56"/>
<path opacity="0.1" d="M722.16 79.8678C722.22 83.7878 722.28 87.7178 722.29 91.6378C722.29 86.2378 722.24 80.8478 722.16 75.4578C722.08 69.8678 721.98 64.2078 720.47 58.8178C719.47 55.3978 717.99 51.9278 717.47 48.4778C716.58 53.3778 719.11 58.3478 720.47 63.2378C721.98 68.5778 722.08 74.2778 722.16 79.8678Z" fill="black"/>
<path opacity="0.1" d="M825.189 149.146C822.184 150.038 819.098 149.84 816.023 149.818C808.976 149.769 801.954 150.739 795.137 152.704C791.688 153.868 788.188 154.839 784.649 155.612C780.563 156.17 776.436 156.288 772.328 155.964C751.693 155.072 730.767 154.114 711.003 147.626C710.417 149.067 709.747 150.465 709 151.812C729.365 158.928 751.022 159.908 772.368 160.822C776.476 161.146 780.603 161.028 784.689 160.47C788.215 159.704 791.703 158.737 795.137 157.573C801.94 155.601 808.948 154.619 815.983 154.654C819.058 154.654 822.184 154.863 825.149 153.971C828.114 153.079 830.969 150.843 831.77 147.582C832.108 146.072 832.073 144.49 831.67 143C830.778 146.084 828.024 148.232 825.189 149.146Z" fill="black"/>
<path d="M795.94 135.962C795.183 137.738 791.995 153.082 791.239 154.655C790.483 156.228 786.354 181.407 785.976 182.819C785.598 184.231 758.764 176.912 758.764 176.912L742.608 162.734L726.003 145.432C726.003 145.432 725.512 129.82 737.744 124.812C738.575 124.47 739.429 124.191 740.299 123.977C755.136 120.243 753.644 73 753.644 73L784.096 86.7715C784.096 86.7715 778.455 114.336 778.65 119.654C778.701 121.441 780.039 122.554 781.787 123.228C784.488 124.033 787.301 124.351 790.105 124.17C790.105 124.17 796.696 134.196 795.94 135.962Z" fill="#FBBEBE"/>
<path d="M688.221 179.431L680 187.855C680 187.855 694.828 205.82 706.236 206.94C717.644 208.059 725 193.277 725 193.277L715.127 177L688.221 179.431Z" fill="#6C63FF"/>
<path opacity="0.1" d="M690.577 180.431L684 188.855C684 188.855 695.863 206.82 704.989 207.94C714.115 209.059 720 194.277 720 194.277L712.102 178L690.577 180.431Z" fill="black"/>
<path opacity="0.1" d="M769.5 104C785.792 104 799 89.6731 799 72C799 54.3269 785.792 40 769.5 40C753.208 40 740 54.3269 740 72C740 89.6731 753.208 104 769.5 104Z" fill="black"/>
<path d="M769.5 101C785.792 101 799 86.8969 799 69.5C799 52.103 785.792 38 769.5 38C753.208 38 740 52.103 740 69.5C740 86.8969 753.208 101 769.5 101Z" fill="#FBBEBE"/>
<path opacity="0.1" d="M795.94 135.782C795.183 137.565 791.995 152.968 791.239 154.547C790.483 156.126 786.354 181.4 785.976 182.818C785.598 184.236 758.764 176.889 758.764 176.889L742.608 162.657L726.003 145.288C726.003 145.288 725.512 129.617 737.744 124.59L768.114 161.293L781.787 123C784.488 123.808 787.301 124.128 790.105 123.945C790.105 123.945 796.696 134.01 795.94 135.782Z" fill="black"/>
<path d="M764.245 162.391L735.645 124.547C733.971 123.318 732.057 122.586 730.077 122.418C728.096 122.25 726.11 122.651 724.297 123.584C717.894 126.774 709.94 129.358 707.863 130.948C705.785 132.537 698 142.377 698 142.377L721.185 212.129L710.975 258.072C710.975 258.072 712.535 281.546 708.558 290.099C706.137 295.568 705.002 301.67 705.268 307.799C705.268 307.799 706.48 319.142 705.098 325.1C704.291 329.083 704.23 333.219 704.92 337.232C704.92 337.232 787.082 341.211 797.453 337.232C803.457 334.884 809.663 333.286 815.965 332.463C815.965 332.463 814.084 292.673 812.204 283.125C810.324 273.577 813.765 237.182 813.765 237.182L811.518 198.192L825 158.185C825 158.185 817.695 132.537 810.079 129.953C810.079 129.953 796.249 126.168 793.306 124.384C790.364 122.6 781.714 121 781.714 121L777.173 122.752L764.245 162.391Z" fill="#6C63FF"/>
<path opacity="0.1" d="M810.392 197.125L746.642 192.444C745.028 192.325 743.631 193.641 743.522 195.384L736.678 304.074C736.568 305.816 737.787 307.325 739.4 307.443L803.15 312.124C804.764 312.243 806.16 310.927 806.27 309.184L813.114 200.494C813.224 198.751 812.005 197.243 810.392 197.125Z" fill="black"/>
<path d="M812.587 194.764L748.837 190.083C747.223 189.965 745.827 191.281 745.717 193.023L738.873 301.714C738.763 303.456 739.982 304.964 741.595 305.083L805.345 309.764C806.959 309.882 808.356 308.566 808.465 306.824L815.309 198.133C815.419 196.391 814.2 194.882 812.587 194.764Z" fill="#3F3D56"/>
<path d="M810.483 203.284L749.853 198.832L743.622 297.78L804.252 302.232L810.483 203.284Z" fill="white"/>
<path opacity="0.1" d="M805.047 228.54L755.52 224.796L754.554 239.702L804.08 243.445L805.047 228.54Z" fill="black"/>
<path d="M802.979 199.584L761.088 196.508L760.336 208.45L802.227 211.526L802.979 199.584Z" fill="#3F3D56"/>
<path opacity="0.1" d="M802.979 199.584L761.088 196.508L760.336 208.45L802.227 211.526L802.979 199.584Z" fill="black"/>
<path opacity="0.1" d="M758.936 56.5256C758.378 51.3047 759.576 46.042 762.317 41.6759C761.991 46.0521 763.152 50.4074 765.586 53.9469C768.021 57.4863 771.567 59.9739 775.578 60.9556C775.236 60.6387 774.992 60.2187 774.877 59.7508C774.763 59.2829 774.785 58.7891 774.939 58.3344C777.02 60.8473 778.614 63.8259 780.97 66.0355C783.326 68.2451 786.859 69.5665 789.631 67.9959C793.398 65.8297 793.439 60.1216 792.464 55.6808C790.372 46.2234 786.08 37.4807 779.985 30.2597C778.464 28.077 776.49 26.2996 774.218 25.0669C771.945 23.8342 769.436 23.1796 766.887 23.1544C761.119 22.6778 755.128 23.2194 749.96 25.9814C747.052 27.6743 744.328 29.7049 741.837 32.0361L727.622 44.4054C726.254 45.4566 725.083 46.7718 724.169 48.283C723.559 49.5464 723.193 50.9276 723.093 52.3447C722.73 56.3957 723.433 60.4746 725.122 64.1232C726.812 67.7718 729.421 70.8458 732.658 73C732.59 69.7982 733.415 66.6471 735.03 63.947C736.644 61.2469 738.975 59.1198 741.725 57.8362C742.156 58.2205 742.505 58.6986 742.748 59.2385C742.992 59.7784 743.124 60.3675 743.137 60.9665L746.132 55.2692C746.578 54.2325 747.28 53.345 748.163 52.7022C750.011 51.619 752.316 52.8971 753.89 54.4243C755.464 55.9516 756.997 57.8578 759.109 58.0961L759.19 49.6152" fill="black"/>
<path d="M758.911 55.5333C758.351 50.3078 759.55 45.0402 762.294 40.6699C761.379 49.3366 767.505 58.285 775.571 59.9533C775.228 59.639 774.983 59.2208 774.869 58.7544C774.754 58.2879 774.776 57.7954 774.931 57.3425C777.013 59.8558 778.608 62.8241 780.965 65.045C783.321 67.2658 786.856 68.5767 789.63 66.995C793.398 64.8283 793.439 59.1191 792.464 54.6883C790.371 45.2291 786.077 36.4847 779.979 29.2624C778.087 26.8026 775.703 24.8259 773.001 23.4773C771.045 22.7058 768.989 22.26 766.906 22.1557C761.136 21.679 755.142 22.2098 749.972 24.9724C747.064 26.6732 744.339 28.7075 741.845 31.039L727.623 43.4107C726.253 44.4594 725.081 45.7754 724.17 47.2891C723.558 48.5522 723.192 49.934 723.093 51.3516C722.73 55.4018 723.434 59.4796 725.124 63.127C726.814 66.7745 729.425 69.8471 732.662 72C732.596 68.7982 733.423 65.6476 735.038 62.9476C736.653 60.2475 738.983 58.1195 741.733 56.8333C742.163 57.219 742.511 57.6975 742.754 58.2372C742.998 58.7769 743.131 59.3655 743.145 59.9641L746.132 54.2874C746.575 53.2487 747.278 52.3604 748.164 51.7199C750.012 50.6366 752.318 51.9149 753.893 53.4424C755.467 54.9699 757.001 56.8658 759.114 57.1149L759.195 48.6216" fill="#3F3D56"/>
<path d="M786.692 252.26C784.3 250.86 744.741 258 744.741 258C744.741 258 738.225 255.846 722.476 252.852C706.727 249.858 705.722 232.044 705.722 232.044L704 196.385L709.315 191L732.082 208.232C732.082 208.232 732.436 216.945 732.082 218.517C731.859 219.594 731.263 220.876 731.319 221.748C731.336 221.985 731.42 222.208 731.558 222.383C731.696 222.558 731.881 222.676 732.082 222.718C733.627 223.17 754.682 227.112 754.682 227.112C754.682 227.112 803.484 223.245 815.649 242.265C816.613 243.661 817.343 245.254 817.799 246.961C820.815 259.96 788.861 253.498 786.692 252.26Z" fill="#FBBEBE"/>
<path opacity="0.1" d="M819 255.344C817.015 256.307 815.785 257 815.785 257C815.785 257 797.168 256.405 786.709 252.269C776.25 248.134 763.538 248.87 763.538 248.87C763.538 248.87 719.954 240.685 726.712 230C726.73 230.237 726.82 230.462 726.967 230.638C727.114 230.814 727.311 230.932 727.526 230.974C729.173 231.429 751.62 235.391 751.62 235.391C751.62 235.391 803.648 231.505 816.618 250.624C817.678 252.019 818.486 253.621 819 255.344V255.344Z" fill="black"/>
<path d="M837.71 192C837.71 192 840.286 211.608 840.465 213.201C840.645 214.795 841.573 233.994 840.465 236.18C839.357 238.365 837.71 241.919 837.71 241.919C837.71 241.919 839.547 246.075 832.201 247.669C824.855 249.262 816.232 254 816.232 254C816.232 254 797.498 253.408 787.038 249.251C776.578 245.095 763.722 245.881 763.722 245.881C763.722 245.881 708.079 235.577 731.953 223C755.827 210.423 772.715 227.458 772.715 227.458L799.334 225.681C799.334 225.681 809.255 219.134 812.01 219.737C813.955 220.005 815.93 219.661 817.699 218.747L817.888 197.944L837.71 192Z" fill="#FBBEBE"/>
<path opacity="0.1" d="M690.135 127L699.591 136.17L685 185.677C685 185.677 686.24 186.971 693.481 191.517C700.721 196.064 714 197 714 197L709.048 145.341L690.135 127Z" fill="black"/>
<path d="M704.898 138.217L699.712 138L684 186.866C684 186.866 700.965 183.437 708.277 186.866C715.589 190.294 729 191 729 191L723.999 152.047L704.898 138.217Z" fill="#6C63FF"/>
<g opacity="0.1">
<path opacity="0.1" d="M762.073 40.9758C762.029 40.1512 762.046 39.3242 762.124 38.5023C760.572 40.9593 759.504 43.7206 758.984 46.6219V49.1169C758.984 49.1169 758.984 49.0631 758.984 49.0309V49.6223C758.984 51.3645 758.984 53.1175 758.933 54.8597H758.79V55.6663C758.79 55.3867 758.79 55.1178 758.739 54.8382C756.7 54.4941 755.242 52.6873 753.723 51.2463C752.204 49.8052 749.829 48.4286 747.973 49.5363C747.084 50.1721 746.379 51.054 745.934 52.0851L742.906 57.7204C742.893 57.1274 742.759 56.5443 742.515 56.0101C742.27 55.4759 741.921 55.003 741.489 54.6231C738.727 55.8976 736.387 58.0096 734.766 60.6905C733.145 63.3714 732.316 66.5002 732.385 69.6792C729.599 67.8382 727.269 65.3243 725.586 62.3454C723.904 59.3664 722.918 56.008 722.709 52.5475C722.532 56.4115 723.335 60.2554 725.036 63.6828C726.737 67.1101 729.273 69.9969 732.385 72.0452C732.319 68.8668 733.148 65.7392 734.769 63.0588C736.39 60.3784 738.729 58.266 741.489 56.9891C741.92 57.372 742.269 57.847 742.513 58.3828C742.758 58.9185 742.891 59.5028 742.906 60.0971L745.903 54.4618C746.348 53.4307 747.054 52.5488 747.942 51.913C749.798 50.8376 752.112 52.1066 753.692 53.623C755.273 55.1393 756.812 57.0213 758.933 57.2687C758.933 54.5156 758.96 51.7696 759.014 49.0309C759.515 46.1576 760.554 43.4188 762.073 40.9758V40.9758Z" fill="black"/>
<path opacity="0.1" d="M758.627 51.8055C758.678 51.0742 758.759 50.3429 758.861 49.6546L758.974 46.6864C758.667 48.3723 758.551 50.0907 758.627 51.8055Z" fill="black"/>
<path opacity="0.1" d="M789.559 64.6354C786.776 66.2056 783.228 64.8935 780.863 62.6997C778.497 60.5058 776.897 57.5483 774.807 55.0533C774.652 55.5048 774.631 55.995 774.745 56.4596C774.86 56.9242 775.105 57.3412 775.449 57.6558C775.245 57.6558 775.051 57.5483 774.858 57.4945C776.897 59.968 778.518 62.8717 780.863 65.0226C783.208 67.1735 786.776 68.5285 789.559 66.9584C792.342 65.3882 793.138 61.7102 792.893 58.129C792.709 60.9467 791.751 63.3879 789.559 64.6354Z" fill="black"/>
<path opacity="0.1" d="M774.796 57.473C771.387 56.4929 768.343 54.4369 766.073 51.5806C763.802 48.7243 762.414 45.2042 762.093 41.492C761.512 49.9342 767.548 58.3979 775.449 60.0218C775.112 59.7135 774.871 59.3063 774.754 58.8524C774.638 58.3984 774.653 57.9182 774.796 57.473V57.473Z" fill="black"/>
</g>
<path d="M822.631 147L829.878 149.044C829.878 149.044 848.383 182.554 849.833 184.375C851.282 186.196 842.931 193.047 839.49 193.047C836.05 193.047 819.181 195.525 814.281 201.248C809.381 206.971 811.421 178.169 811.421 177.512C811.421 176.856 817.544 158.62 817.544 158.62L822.631 147Z" fill="#6C63FF"/>
<path opacity="0.1" d="M773.289 615.318C767.48 615.127 761.67 615.587 755.897 616.694C746.659 618.517 739.588 611.721 738.366 608.92C737.145 606.118 730.754 596.57 725.859 593.371C723.466 591.813 722.904 586.741 723.013 582C725.75 583.077 731.502 585.829 733.757 590.62C736.712 597.018 742.001 607.776 749.515 608.455C755.582 609.002 770.355 607.179 775.771 606.45C776.933 614.191 773.289 615.318 773.289 615.318Z" fill="black"/>
<path opacity="0.1" d="M821.646 612.594C818.788 614.07 803.306 616.583 798.975 615.878C794.645 615.173 788.911 612.208 787.269 608.366C785.628 604.524 776.503 598.687 774.051 599.059C771.599 599.431 766.141 595.948 766.141 595.948C766.141 595.948 765.291 590.63 767.763 587L772.706 591.72C772.706 591.72 785.935 597.238 788.386 602.356C790.838 607.475 795.307 610.334 801.763 610.852C806.588 611.278 817.671 608.752 822.862 607.488C823.208 609.789 822.941 611.942 821.646 612.594Z" fill="black"/>
<path opacity="0.1" d="M760.5 633C820.975 633 870 625.837 870 617C870 608.163 820.975 601 760.5 601C700.025 601 651 608.163 651 617C651 625.837 700.025 633 760.5 633Z" fill="#6C63FF"/>
<path opacity="0.1" d="M424 633C566.49 633 682 626.06 682 617.5C682 608.94 566.49 602 424 602C281.511 602 166 608.94 166 617.5C166 626.06 281.511 633 424 633Z" fill="#6C63FF"/>
<path opacity="0.1" d="M104.1 329.22C104.36 329.54 104.6 329.9 104.85 330.22H110.14V337.05L111.85 339.05V330.18H119.85V344.52H116.56C116.88 344.85 117.19 345.2 117.56 345.52H178.39V329.22H104.1ZM129.56 344.52H121.56V330.24H129.56V344.52ZM139.25 344.52H131.25V330.24H139.25V344.52ZM148.94 344.52H140.94V330.24H148.94V344.52ZM158.62 344.52H150.62V330.24H158.62V344.52ZM168.3 344.52H160.3V330.24H168.3V344.52ZM177.99 344.52H169.99V330.24H177.99V344.52Z" fill="#6C63FF"/>
<path opacity="0.1" d="M157.49 376.58C158.41 377.1 159.34 377.58 160.27 378.09V377.59H168.27V382.1C168.85 382.35 169.4 382.62 169.97 382.88V377.59H177.97V386.25C178.122 386.319 178.279 386.375 178.44 386.42V376.58H157.49Z" fill="#6C63FF"/>
<path opacity="0.1" d="M133.24 632.96C187.055 632.96 230.68 625.953 230.68 617.31C230.68 608.667 187.055 601.66 133.24 601.66C79.4254 601.66 35.8 608.667 35.8 617.31C35.8 625.953 79.4254 632.96 133.24 632.96Z" fill="#6C63FF"/>
<path d="M136.38 317.5H130.11V458.67H136.38V317.5Z" fill="#535461"/>
<path d="M175.79 458.25L175.39 464.61L174.84 473.61L174.61 477.35L174.05 486.35L173.81 490.09L173.26 499.09L166.93 601.16C166.66 605.552 164.725 609.675 161.52 612.689C158.314 615.703 154.08 617.381 149.68 617.38H116.81C112.398 617.382 108.153 615.695 104.945 612.666C101.737 609.637 99.8104 605.495 99.56 601.09L93.23 499.02L92.68 490.02L92.45 486.28L91.88 477.28L91.65 473.54L91.1 464.54L90.7 458.18C90.6308 456.961 90.8104 455.741 91.2278 454.593C91.6452 453.446 92.2918 452.395 93.1281 451.505C93.9644 450.616 94.973 449.906 96.0925 449.418C97.212 448.931 98.419 448.676 99.64 448.67H166.86C168.086 448.677 169.299 448.935 170.422 449.427C171.545 449.919 172.556 450.636 173.392 451.533C174.228 452.43 174.872 453.489 175.285 454.644C175.697 455.799 175.869 457.026 175.79 458.25V458.25Z" fill="#3F3D56"/>
<path d="M175.39 464.6L174.83 473.58H91.65L91.09 464.6H175.39Z" fill="#9D9CB5"/>
<path d="M174.6 477.32L174.05 486.3H92.44L91.88 477.32H174.6Z" fill="#9D9CB5"/>
<path d="M173.81 490.05L173.26 499.02H93.23L92.67 490.05H173.81Z" fill="#9D9CB5"/>
<path d="M81.56 370.42C118.08 396.84 133.29 438.16 133.29 438.16C133.29 438.16 89.29 436.65 52.76 410.23C16.23 383.81 1 342.52 1 342.52C1 342.52 45 344 81.56 370.42Z" fill="#0FCD2D"/>
<path d="M1 342.52C1 342.52 46.67 367.87 61.32 388.86C75.97 409.85 133.25 438.18 133.25 438.18" stroke="#535461" stroke-width="2" stroke-miterlimit="10"/>
<path d="M105.09 317.2C124.97 331.57 133.25 354.06 133.25 354.06C133.25 354.06 109.25 353.24 89.42 338.87C69.59 324.5 61.26 302 61.26 302C61.26 302 85.22 302.82 105.09 317.2Z" fill="#0FCD2D"/>
<path d="M61.26 302C61.26 302 86.12 315.8 94.1 327.22C102.08 338.64 133.25 354.06 133.25 354.06" stroke="#535461" stroke-width="2" stroke-miterlimit="10"/>
<path d="M162.13 352.92C139.3 378.01 134.47 410.8 134.47 410.8C134.47 410.8 166.66 402.9 189.47 377.8C212.28 352.7 217.13 319.92 217.13 319.92C217.13 319.92 184.96 327.83 162.13 352.92Z" fill="#0FCD2D"/>
<path d="M217.15 319.93C217.15 319.93 187.41 345.65 179.85 363.37C172.29 381.09 134.47 410.8 134.47 410.8" stroke="#535461" stroke-width="2" stroke-miterlimit="10"/>
</svg>
