<svg width="151" height="151" viewBox="0 0 151 151" fill="none" xmlns="http://www.w3.org/2000/svg">
<rect width="151" height="151" fill="white"/>
<circle cx="75.5" cy="75.5" r="75.5" fill="#FE1A1A"/>
<rect x="54" y="16" width="41" height="116" fill="white"/>
<path d="M16 95L16 54H74L132 54V95H16Z" fill="white"/>
<path d="M92 40C92 49.6177 90.1667 66.5 85 71C85 67.4 64 52 48 47.5C65.2 61.9 79 104 70 134C116 92 92 32.5 92 40Z" fill="#2C14BB"/>
<path d="M84.5 71V72.0985L85.3284 71.377C86.7132 70.1709 87.8326 68.1795 88.7409 65.7878C89.6537 63.384 90.374 60.5196 90.9292 57.5098C92.0097 51.653 92.4746 45.1941 92.499 40.3967C92.5017 40.4015 92.5045 40.4063 92.5073 40.4112C93.0452 41.3525 93.79 43.1822 94.5518 45.7589C96.0707 50.8969 97.6257 58.8984 97.75 68.444C97.9939 87.1614 92.7395 111.779 70.969 132.416C74.9177 117.657 73.6281 100.289 69.3067 84.7659C65.1138 69.7042 58.0413 56.2904 50.0283 48.6455C57.4291 51.0981 65.6421 55.59 72.2215 60.0028C75.8328 62.4248 78.9368 64.8129 81.1321 66.8119C82.231 67.8125 83.0912 68.7057 83.6725 69.4492C83.9633 69.8211 84.176 70.1451 84.3141 70.418C84.4556 70.6976 84.5 70.8871 84.5 71ZM92.0837 39.8206C92.0837 39.8206 92.0845 39.821 92.0861 39.8222C92.0845 39.8212 92.0837 39.8206 92.0837 39.8206Z" stroke="#2C14BB" stroke-opacity="0.94"/>
<ellipse cx="77" cy="43.5" rx="9" ry="8.5" fill="#2C14BB"/>
</svg>
